<?xml version="1.0" encoding="UTF-8" standalone="no"?>
<!DOCTYPE svg PUBLIC "-//W3C//DTD SVG 1.1//EN"
 "http://www.w3.org/Graphics/SVG/1.1/DTD/svg11.dtd">
<!-- Generated by graphviz version 2.26.3 (20100126.1600)
 -->
<!-- Title: modules Pages: 1 -->
<svg width="380pt" height="608pt"
 viewBox="0.00 0.00 380.00 608.00" xmlns="http://www.w3.org/2000/svg" xmlns:xlink="http://www.w3.org/1999/xlink">
<g id="graph1" class="graph" transform="scale(1 1) rotate(0) translate(4 604)">
<title>modules</title>
<polygon fill="white" stroke="white" points="-4,5 -4,-604 377,-604 377,5 -4,5"/>
<g id="graph2" class="cluster"><title>cluster_ml_questions</title>
<polygon fill="none" stroke="lightgrey" points="8,-8 8,-518 364,-518 364,-8 8,-8"/>
</g>
<g id="graph3" class="cluster"><title>cluster_ml_experiment</title>
<polygon fill="none" stroke="lightgrey" points="16,-16 16,-428 356,-428 356,-16 16,-16"/>
</g>
<g id="graph4" class="cluster"><title>cluster_discrete_hyperparameter_space</title>
<polygon fill="none" stroke="lightgrey" points="25,-286 25,-338 311,-338 311,-286 25,-286"/>
</g>
<!-- CUSTOMER_DATA -->
<g id="node1" class="node"><title>CUSTOMER_DATA</title>
<a xlink:title="raw customer data; dirty">
<ellipse fill="none" stroke="black" cx="168" cy="-582" rx="98.8688" ry="18"/>
<text text-anchor="middle" x="168" y="-577.9" font-family="Times Roman,serif" font-size="14.00">CUSTOMER_DATA</text>
</a>
</g>
<!-- ML_READY_DATA -->
<g id="node2" class="node"><title>ML_READY_DATA</title>
<a xlink:title="data which can be used as ML input">
<ellipse fill="none" stroke="black" cx="168" cy="-492" rx="95.8938" ry="18"/>
<text text-anchor="middle" x="168" y="-487.9" font-family="Times Roman,serif" font-size="14.00">ML_READY_DATA</text>
</a>
</g>
<!-- CUSTOMER_DATA&#45;&gt;ML_READY_DATA -->
<g id="edge2" class="edge"><title>CUSTOMER_DATA&#45;&gt;ML_READY_DATA</title>
<path fill="none" stroke="black" d="M168,-563.787C168,-551.344 168,-534.605 168,-520.421"/>
<polygon fill="black" stroke="black" points="171.5,-520.186 168,-510.186 164.5,-520.186 171.5,-520.186"/>
<text text-anchor="middle" x="181.5" y="-532.9" font-family="Times Roman,serif" font-size="14.00">ETL</text>
</g>
<!-- EXPERIMENT_DESIGN -->
<g id="node3" class="node"><title>EXPERIMENT_DESIGN</title>
<a xlink:title="data, splits and relations according to a certain problem setting">
<ellipse fill="none" stroke="black" cx="168" cy="-402" rx="119.02" ry="18"/>
<text text-anchor="middle" x="168" y="-397.9" font-family="Times Roman,serif" font-size="14.00">EXPERIMENT_DESIGN</text>
</a>
</g>
<!-- ML_READY_DATA&#45;&gt;EXPERIMENT_DESIGN -->
<g id="edge5" class="edge"><title>ML_READY_DATA&#45;&gt;EXPERIMENT_DESIGN</title>
<path fill="none" stroke="black" d="M168,-473.787C168,-461.344 168,-444.605 168,-430.421"/>
<polygon fill="black" stroke="black" points="171.5,-430.186 168,-420.186 164.5,-430.186 171.5,-430.186"/>
<text text-anchor="middle" x="246" y="-442.9" font-family="Times Roman,serif" font-size="14.00">splitting, formalization</text>
</g>
<!-- ML_MODELS_PER_HPSET -->
<g id="node4" class="node"><title>ML_MODELS_PER_HPSET</title>
<a xlink:title="models per hyperparameter combination">
<ellipse fill="none" stroke="black" cx="168" cy="-312" rx="134.807" ry="18"/>
<text text-anchor="middle" x="168" y="-307.9" font-family="Times Roman,serif" font-size="14.00">ML_MODELS_PER_HPSET</text>
</a>
</g>
<!-- EXPERIMENT_DESIGN&#45;&gt;ML_MODELS_PER_HPSET -->
<g id="edge8" class="edge"><title>EXPERIMENT_DESIGN&#45;&gt;ML_MODELS_PER_HPSET</title>
<path fill="none" stroke="black" d="M168,-383.787C168,-371.344 168,-354.605 168,-340.421"/>
<polygon fill="black" stroke="black" points="171.5,-340.186 168,-330.186 164.5,-340.186 171.5,-340.186"/>
<text text-anchor="middle" x="206" y="-352.9" font-family="Times Roman,serif" font-size="14.00">grid search</text>
</g>
<!-- BEST_VALIDATION_MODEL -->
<g id="node5" class="node"><title>BEST_VALIDATION_MODEL</title>
<a xlink:title="best model wrt. user&#45;defined selection criteria">
<ellipse fill="none" stroke="black" cx="168" cy="-222" rx="143.841" ry="18"/>
<text text-anchor="middle" x="168" y="-217.9" font-family="Times Roman,serif" font-size="14.00">BEST_VALIDATION_MODEL</text>
</a>
</g>
<!-- ML_MODELS_PER_HPSET&#45;&gt;BEST_VALIDATION_MODEL -->
<g id="edge11" class="edge"><title>ML_MODELS_PER_HPSET&#45;&gt;BEST_VALIDATION_MODEL</title>
<path fill="none" stroke="black" d="M168,-293.787C168,-281.344 168,-264.605 168,-250.421"/>
<polygon fill="black" stroke="black" points="171.5,-250.186 168,-240.186 164.5,-250.186 171.5,-250.186"/>
<text text-anchor="middle" x="221.5" y="-262.9" font-family="Times Roman,serif" font-size="14.00">model selection</text>
</g>
<!-- TEST_SCORE -->
<g id="node6" class="node"><title>TEST_SCORE</title>
<ellipse fill="none" stroke="black" cx="150" cy="-132" rx="75.2406" ry="18"/>
<text text-anchor="middle" x="150" y="-127.9" font-family="Times Roman,serif" font-size="14.00">TEST_SCORE</text>
</g>
<!-- BEST_VALIDATION_MODEL&#45;&gt;TEST_SCORE -->
<g id="edge13" class="edge"><title>BEST_VALIDATION_MODEL&#45;&gt;TEST_SCORE</title>
<path fill="none" stroke="black" d="M164.357,-203.787C161.844,-191.222 158.455,-174.277 155.601,-160.005"/>
<polygon fill="black" stroke="black" points="159.03,-159.305 153.637,-150.186 152.166,-160.678 159.03,-159.305"/>
<text text-anchor="middle" x="264.5" y="-172.9" font-family="Times Roman,serif" font-size="14.00">model application on test data</text>
</g>
<!-- AGGREGATED_PERFORMANCE -->
<g id="node7" class="node"><title>AGGREGATED_PERFORMANCE</title>
<ellipse fill="none" stroke="black" cx="186" cy="-42" rx="161.908" ry="18"/>
<text text-anchor="middle" x="186" y="-37.9" font-family="Times Roman,serif" font-size="14.00">AGGREGATED_PERFORMANCE</text>
</g>
<!-- TEST_SCORE&#45;&gt;AGGREGATED_PERFORMANCE -->
<g id="edge15" class="edge"><title>TEST_SCORE&#45;&gt;AGGREGATED_PERFORMANCE</title>
<path fill="none" stroke="black" d="M157.285,-113.787C162.36,-101.1 169.221,-83.9472 174.964,-69.5897"/>
<polygon fill="black" stroke="black" points="178.261,-70.7704 178.726,-60.1858 171.762,-68.1706 178.261,-70.7704"/>
<text text-anchor="middle" x="264.5" y="-82.9" font-family="Times Roman,serif" font-size="14.00">averaged test performance</text>
</g>
</g>
</svg>
